<svg xmlns="http://www.w3.org/2000/svg" xmlns:xlink="http://www.w3.org/1999/xlink" viewBox="0 0 561.6 374.4"><defs><style>.cls-1{fill:#24252d;}.cls-2{fill:url(#linear-gradient);}.cls-3{fill:url(#linear-gradient-2);}.cls-4{fill:url(#linear-gradient-3);}.cls-5{fill:url(#linear-gradient-4);}.cls-6{fill:url(#linear-gradient-5);}.cls-7{fill:url(#linear-gradient-6);}.cls-8{fill:url(#linear-gradient-7);}.cls-9{fill:#3f4346;}.cls-12,.cls-13,.cls-9{opacity:0.2;}.cls-10{fill:#f9fcba;}.cls-10,.cls-11{opacity:0.3;}.cls-11{fill:#fff;}.cls-12{fill:#7a3e1c;}.cls-13{fill:#333;}.cls-14{font-size:24.41px;letter-spacing:0.05em;}.cls-14,.cls-17{fill:#b2b2b2;font-family:FuturaBT-Bold, FuturaBT Bold;font-weight:700;}.cls-15{letter-spacing:-0.02em;}.cls-16{letter-spacing:0.05em;}.cls-17{font-size:8.24px;letter-spacing:0.6em;}.cls-18{letter-spacing:0.55em;}.cls-19{letter-spacing:0.6em;}.cls-20{letter-spacing:0.55em;}.cls-21{letter-spacing:0.56em;}.cls-22{letter-spacing:0.6em;}.cls-23{letter-spacing:0.56em;}.cls-24{letter-spacing:0.6em;}</style><linearGradient id="linear-gradient" x1="285.61" y1="245.6" x2="283.1" y2="82.96" gradientUnits="userSpaceOnUse"><stop offset="0" stop-color="#1a1a1a"/><stop offset="1" stop-color="#666"/></linearGradient><linearGradient id="linear-gradient-2" x1="252.82" y1="225.03" x2="257.22" y2="-304.95" gradientUnits="userSpaceOnUse"><stop offset="0" stop-color="#8a5000"/><stop offset="1" stop-color="#fef163"/></linearGradient><linearGradient id="linear-gradient-3" x1="254.72" y1="226.35" x2="252.2" y2="88.21" xlink:href="#linear-gradient-2"/><linearGradient id="linear-gradient-4" x1="267.06" y1="140.66" x2="266.41" y2="93.17" xlink:href="#linear-gradient-2"/><linearGradient id="linear-gradient-5" x1="235.21" y1="226.7" x2="232.7" y2="88.57" xlink:href="#linear-gradient-2"/><linearGradient id="linear-gradient-6" x1="224.84" y1="215.83" x2="225.58" y2="187.97" gradientUnits="userSpaceOnUse"><stop offset="0" stop-color="#333"/><stop offset="1" stop-color="#fff"/></linearGradient><linearGradient id="linear-gradient-7" x1="293.29" y1="252.53" x2="296.11" y2="120.98" xlink:href="#linear-gradient-6"/></defs><g id="Background"><rect class="cls-1" width="561.6" height="374.4"/></g><g id="Icon"><path class="cls-2" d="M237.54,190.19h0v2.44a5.4,5.4,0,0,0,8.55,4.75l64.11-46.58,15.87,0-21.85,15.81h0a5.47,5.47,0,0,0-2.21,3.88h0v.06a4,4,0,0,0,0,.85v2.51h0a5.18,5.18,0,0,0,.25,2.09l8.73,26.7L286.07,184.5a5.38,5.38,0,0,0-6.42-.07l-39.9,29.11a5.36,5.36,0,0,0-2.21,4.62h0v2.94a1.5,1.5,0,0,0,0,.3v.41h0a5.39,5.39,0,0,0,8.52,3.78l36.74-26.8,36.74,26.8a5.38,5.38,0,0,0,8.5-3.65h0a5.16,5.16,0,0,0,0-1.36v-2a5.49,5.49,0,0,0-.22-2.35h0l-13.24-40.5,35.94-26a5.4,5.4,0,0,0,2.23-4.11h0v-3.72h0A5.39,5.39,0,0,0,347,136.6l-38.59.08a5.28,5.28,0,0,0-3.15,1v0l-65.5,47.6a5.39,5.39,0,0,0-2.21,4.9m-21.28,15.17v2.84a5.39,5.39,0,0,0,8.55,4.62l7.09-5.14a5.4,5.4,0,0,0,2-6.05,5.4,5.4,0,0,0-8.29-6l-7.09,5.15A5.41,5.41,0,0,0,216.26,205.36Z" transform="translate(0 0)"/><path class="cls-3" d="M225.85,142.05v2.59a5,5,0,0,0,0,.77h0a5.39,5.39,0,0,0,8.54,4l4.82-3.5a5.41,5.41,0,0,0,2-6,5.39,5.39,0,0,0-8.29-6l-4.82,3.5a5.38,5.38,0,0,0-2.21,4.75M298,125.17h0v3.39h0a5.4,5.4,0,0,1-2.23,4.48L217.37,190a5.39,5.39,0,0,1-7.53-1.2,5.31,5.31,0,0,1-1-3h0a1,1,0,0,1,0-.24v-2.9h0A5.38,5.38,0,0,1,211,177.9L289.42,121a5.4,5.4,0,0,1,8.56,4.21Zm-7.4-19.75a5.38,5.38,0,0,1-2.21,4.75L251.4,137a5.39,5.39,0,0,1-8.52-3.69h0a4.94,4.94,0,0,1,0-1.33v-2a5.41,5.41,0,0,1,2.19-5l37-26.86a5.39,5.39,0,0,1,8.54,4h0a5,5,0,0,1,0,.77Z" transform="translate(0 0)"/><path class="cls-4" d="M209.84,185.43a5.39,5.39,0,0,0,7.53,1.2l78.38-56.94a5.39,5.39,0,1,0-6.33-8.73L211,177.9A5.39,5.39,0,0,0,209.84,185.43Z" transform="translate(0 0)"/><path class="cls-5" d="M251.4,133.68l37-26.86A5.4,5.4,0,0,0,282,98.08l-37,26.86a5.4,5.4,0,1,0,6.33,8.74Z" transform="translate(0 0)"/><path class="cls-6" d="M234.39,146l4.82-3.5a5.39,5.39,0,1,0-6.33-8.73l-4.82,3.5a5.39,5.39,0,1,0,6.33,8.73Z" transform="translate(0 0)"/><path class="cls-7" d="M224.81,209.47l7.09-5.15a5.4,5.4,0,0,0-6.33-8.74l-7.09,5.15a5.4,5.4,0,0,0,6.33,8.74Z" transform="translate(0 0)"/><path class="cls-8" d="M351.76,138.82A5.39,5.39,0,0,0,347,136.6l-38.59.08a5.28,5.28,0,0,0-3.15,1v0l-65.5,47.6a5.39,5.39,0,1,0,6.33,8.73l64.11-46.58,20.52,0-26.5,19.17h0a5.4,5.4,0,0,0-2,6l10.17,31.11L286.07,184.5a5.38,5.38,0,0,0-6.42-.07l-39.9,29.11a5.38,5.38,0,0,0,6.33,8.7l36.74-26.81,36.74,26.81a5.38,5.38,0,0,0,8.28-6h0L313.72,173l36.83-26.65A5.38,5.38,0,0,0,351.76,138.82Z" transform="translate(0 0)"/><path class="cls-9" d="M238.57,221.06a5.38,5.38,0,0,0,7.51,1.18l36.74-26.81,36.74,26.81a5.38,5.38,0,0,0,8.28-6h0L313.72,173,329,162a91.61,91.61,0,0,0-16.34-1.49l-8.42,6.09h0a5.4,5.4,0,0,0-2,6l10.17,31.11L286.07,184.5a5.38,5.38,0,0,0-6.42-.07l-39.9,29.11A5.38,5.38,0,0,0,238.57,221.06Z" transform="translate(0 0)"/><path class="cls-9" d="M287.55,163.89a91.87,91.87,0,0,0-46.61,30.78,5.39,5.39,0,0,0,5.14-.65Z" transform="translate(0 0)"/><path class="cls-10" d="M282,98.08,253.21,119a82.19,82.19,0,0,0,6.85,8.37l28.31-20.57A5.4,5.4,0,0,0,282,98.08Z" transform="translate(0 0)"/><path class="cls-10" d="M278.6,142.15l17.15-12.46a5.39,5.39,0,1,0-6.33-8.73l-20.31,14.75A79.53,79.53,0,0,0,278.6,142.15Z" transform="translate(0 0)"/><path class="cls-11" d="M349.43,147.17l1.12-.82A5.39,5.39,0,0,0,347,136.6l-38.59.08a5.28,5.28,0,0,0-3.15,1v0L291,148a80,80,0,0,0,13.31,3.66l5.84-4.24,20.52,0-7.66,5.54A80.66,80.66,0,0,0,349.43,147.17Z" transform="translate(0 0)"/><path class="cls-12" d="M209.84,185.43a5.39,5.39,0,0,0,7.53,1.2l31.91-23.18a116.32,116.32,0,0,0-16.49-1.35L211,177.9A5.39,5.39,0,0,0,209.84,185.43Z" transform="translate(0 0)"/><path class="cls-13" d="M224.81,209.47l7.09-5.15a5.4,5.4,0,0,0-6.33-8.74l-7.09,5.15a5.4,5.4,0,0,0,6.33,8.74Z" transform="translate(0 0)"/><path class="cls-13" d="M279.65,184.43l-39.9,29.11a5.38,5.38,0,0,0,6.33,8.7l36.74-26.81,36.74,26.81a5.38,5.38,0,0,0,8.28-6h0l-1.16-3.54a115.2,115.2,0,0,0-18.19-21l3.92,12L286.07,184.5A5.38,5.38,0,0,0,279.65,184.43Z" transform="translate(0 0)"/><path class="cls-13" d="M239.75,185.29a5.39,5.39,0,1,0,6.33,8.73l31-22.53a113.88,113.88,0,0,0-12.2-4.48Z" transform="translate(0 0)"/><path class="cls-12" d="M209.84,185.43a5.39,5.39,0,0,0,7.53,1.2l12.83-9.31a92,92,0,0,0-15.95-1.75L211,177.9A5.39,5.39,0,0,0,209.84,185.43Z" transform="translate(0 0)"/><path class="cls-13" d="M239.75,185.29a5.39,5.39,0,1,0,6.33,8.73l10-7.29a90.78,90.78,0,0,0-11.23-5.18Z" transform="translate(0 0)"/><path class="cls-13" d="M224.81,209.47l7.09-5.15a5.4,5.4,0,0,0-6.33-8.74l-7.09,5.15a5.4,5.4,0,0,0,6.33,8.74Z" transform="translate(0 0)"/><path class="cls-13" d="M238.57,221.06a5.38,5.38,0,0,0,7.51,1.18l29.35-21.42a93,93,0,0,0-8.46-7.13l-27.22,19.85A5.38,5.38,0,0,0,238.57,221.06Z" transform="translate(0 0)"/><path class="cls-10" d="M238.59,141.87l-4.82,3.51A5.4,5.4,0,0,1,227,145a5.39,5.39,0,0,0,7.38,1l4.82-3.5a5.39,5.39,0,0,0,1.2-7.53,5.31,5.31,0,0,0-.77-.86l.15.2A5.39,5.39,0,0,1,238.59,141.87Z" transform="translate(0 0)"/><path class="cls-10" d="M287.75,106.16l-37,26.86a5.39,5.39,0,0,1-6.75-.34,5.39,5.39,0,0,0,7.38,1l37-26.86a5.4,5.4,0,0,0,1.2-7.54,5.25,5.25,0,0,0-.78-.85,1.56,1.56,0,0,1,.16.2A5.39,5.39,0,0,1,287.75,106.16Z" transform="translate(0 0)"/><path class="cls-10" d="M210,185.63a5.39,5.39,0,0,0,7.38,1l78.38-56.94a5.39,5.39,0,0,0,1.2-7.53,5.31,5.31,0,0,0-.77-.86l.15.2a5.39,5.39,0,0,1-1.2,7.53L216.75,186A5.4,5.4,0,0,1,210,185.63Z" transform="translate(0 0)"/><path class="cls-11" d="M231.28,203.66l-7.09,5.15a5.39,5.39,0,0,1-6.75-.34,5.39,5.39,0,0,0,7.37,1l7.09-5.15a5.39,5.39,0,0,0,1.2-7.53,5.31,5.31,0,0,0-.77-.86l.15.2A5.39,5.39,0,0,1,231.28,203.66Z" transform="translate(0 0)"/><path class="cls-11" d="M349.93,145.69,313.1,172.35l14.13,43.22h0a5.38,5.38,0,0,1-8.28,6L282.2,194.77l-36.75,26.81a5.36,5.36,0,0,1-6.74-.34,5.38,5.38,0,0,0,7.37,1l36.74-26.81,36.74,26.81a5.38,5.38,0,0,0,8.28-6h0L313.72,173l36.83-26.65a5.38,5.38,0,0,0,1.21-7.53A4.93,4.93,0,0,0,351,138a1.56,1.56,0,0,1,.16.2A5.38,5.38,0,0,1,349.93,145.69Z" transform="translate(0 0)"/><path class="cls-11" d="M245.45,193.36a5.39,5.39,0,0,1-6.75-.34,5.39,5.39,0,0,0,7.38,1l64.11-46.58,19,0,.91-.66-20.52,0Z" transform="translate(0 0)"/></g><g id="Logotext"><text class="cls-14" transform="translate(218.08 251.65) scale(0.99 1)">VIDEOS<tspan class="cls-15" x="83.89" y="0">T</tspan><tspan class="cls-16" x="95.41" y="0">AR</tspan></text><text class="cls-17" transform="translate(218.88 268.63) scale(0.85 1)">S<tspan class="cls-18" x="9.01" y="0">A</tspan><tspan class="cls-19" x="18.56" y="0">VE</tspan><tspan class="cls-20" x="37.1" y="0"> </tspan><tspan class="cls-21" x="43.41" y="0">Y</tspan><tspan class="cls-22" x="52.51" y="0">OUR</tspan><tspan class="cls-23" x="82.79" y="0"> </tspan><tspan class="cls-24" x="89.18" y="0">VIDEOS</tspan></text></g></svg>